<svg xmlns="http://www.w3.org/2000/svg" version="1.1" viewBox="-5.0 -10.0 110.0 135.0">
 <path d="m23.043 30.801c4.3789 0 7.9258 3.5469 7.9258 7.9258 0 4.3789-3.5469 7.9258-7.9258 7.9258-4.3789 0-7.9258-3.5469-7.9258-7.9258 0-4.3789 3.5469-7.9258 7.9258-7.9258zm26.957 16.957c12.188 0 22.16 9.9727 22.16 22.16v1.6094c0 1.7734-1.4453 3.2227-3.2227 3.2227l-37.875-0.003906c-1.7734 0-3.2227-1.4453-3.2227-3.2227v-1.6094c0-12.188 9.9727-22.16 22.16-22.16zm0-22.504c5.7344 0 10.383 4.6484 10.383 10.383s-4.6484 10.383-10.383 10.383-10.383-4.6484-10.383-10.383 4.6484-10.383 10.383-10.383zm26.957 5.5469c4.3789 0 7.9258 3.5469 7.9258 7.9258 0 4.3789-3.5469 7.9258-7.9258 7.9258-4.3789 0-7.9258-3.5469-7.9258-7.9258 0-4.3789 3.5469-7.9258 7.9258-7.9258zm-53.914 17.215c-9.3047 0-16.922 7.6133-16.922 16.922v1.2305c0 1.3555 1.1055 2.4609 2.4609 2.4609h17.465c0.35156-6.5508 3.3594-12.422 7.9609-16.551-2.957-2.5273-6.7891-4.0586-10.965-4.0586zm53.914 0c-4.1719 0-8.0039 1.5312-10.965 4.0586 4.6016 4.1289 7.6094 10 7.9609 16.551h17.465c1.3555 0 2.4609-1.1055 2.4609-2.4609v-1.2305c0-9.3047-7.6133-16.922-16.922-16.922z" fillRule="evenodd"/>
<text x="0.0" y="117.5" font-size="5.0" font-weight="bold" font-family="Arbeit Regular, Helvetica, Arial-Unicode, Arial, Sans-serif" fill="#000000">Created by Radhika Studio</text><text x="0.0" y="122.5" font-size="5.0" font-weight="bold" font-family="Arbeit Regular, Helvetica, Arial-Unicode, Arial, Sans-serif" fill="#000000">from Noun Project</text></svg>