<svg xmlns="http://www.w3.org/2000/svg" xmlns:xlink="http://www.w3.org/1999/xlink" version="1.1" x="0px" y="0px" viewBox="0 0 100 125" style="enableBackground:new 0 0 100 100;" xml:space="preserve"><path d="M50,5.6C25.5,5.6,5.6,25.5,5.6,50c0,24.5,19.9,44.4,44.4,44.4c24.5,0,44.4-19.9,44.4-44.4C94.4,25.5,74.5,5.6,50,5.6z   M47,90.8c-0.2-1.9,2.7-3.9,6.8-4.5c4-0.6,7.6,0.3,7.8,2.2c0.3,1.9-2.7,3.9-6.8,4.5C50.8,93.5,47.2,92.7,47,90.8z M64.4,59.2  c1.8-3.5,5.7-5.2,8.6-3.6c2.9,1.6,3.9,5.6,2,9.1c-1.8,3.5-5.7,5.2-8.6,3.6C63.5,67,62.5,62.8,64.4,59.2z M76.2,42.8  c-2.5,0.9-5.5-1.2-6.8-4.7c-1.3-3.5-0.3-7.1,2.2-8c2.5-0.9,5.5,1.2,6.8,4.7C79.7,38.2,78.7,41.8,76.2,42.8z M56.8,22.7  c0,2.7-3,5-6.8,5s-6.8-2.2-6.8-5c0-2.7,3-5,6.8-5S56.8,19.8,56.8,22.7z M45,65.8c3.8,1.1,6.2,4.5,5.3,7.6c-0.9,3.1-4.7,4.6-8.5,3.5  c-3.8-1.2-6.2-4.6-5.3-7.6C37.4,66.2,41.2,64.8,45,65.8z M32.1,51.8c-3.2,0-5.9-3-5.9-6.7s2.7-6.7,5.9-6.7c3.2,0,5.9,3,5.9,6.7  S35.3,51.8,32.1,51.8z M12.6,62.2c1.6-0.9,4.5,1.1,6.5,4.6c2,3.4,2.3,7,0.6,7.9c-1.6,0.9-4.5-1.2-6.5-4.6  C11.2,66.7,10.9,63,12.6,62.2z M15.3,35.8c-1.8-1.1-1.6-4.7,0.5-8c2.1-3.3,5.2-5,7-3.9c1.7,1.2,1.5,4.8-0.5,8  C20.2,35.2,17.1,37,15.3,35.8z M84.8,60.2c1.1-3.9,3.6-6.6,5.5-6.1c1.9,0.6,2.5,4.2,1.3,8.1c-1.1,3.9-3.6,6.6-5.5,6.1  C84.2,67.8,83.6,64.2,84.8,60.2z M82.5,20.9c-1.5-0.2-3.2-1-4.9-2.2c-2.2-1.6-3.7-3.6-4-5.3C76.9,15.4,79.9,18,82.5,20.9z M52.5,6.4  c-1.1,1.3-3.4,2.2-6,2.3c-2.3,0.1-4.4-0.4-5.7-1.4c3-0.6,6.1-1,9.2-1C50.8,6.4,51.7,6.4,52.5,6.4z"/><text x="0" y="115" fill="#000000" font-size="5px" font-weight="bold" font-family="'Helvetica Neue', Helvetica, Arial-Unicode, Arial, Sans-serif">Created by Libby Ventura</text><text x="0" y="120" fill="#000000" font-size="5px" font-weight="bold" font-family="'Helvetica Neue', Helvetica, Arial-Unicode, Arial, Sans-serif">from the Noun Project</text></svg>